<svg xmlns="http://www.w3.org/2000/svg" width="480.02" height="124" viewBox="0 0 480.02 124" fill="none"><g transform="translate(14,14) scale(3.00000)"><path d="M9 14a7 7 0 0 0 14 0" fill="none" stroke="#FFFFFF" stroke-width="2.6" stroke-linecap="round"></path><circle cx="16" cy="11" r="2.4" fill="#FFFFFF"></circle></g><g transform="translate(140.00,17.84) scale(0.87692)"><g transform="translate(-7.92,99.00)"><path d="M26.27 0L7.92 0L7.92-92.40L27.79-92.40L63.56-33.20L63.56-92.40L81.97-92.40L81.97 0L62.11 0L26.27-59.20L26.27 0ZM146.26-59.07L146.26-99L164.60-99L164.60 0L146.26 0L146.26-6.93Q143.15-3.10 138.73-0.69Q134.31 1.72 128.57 1.72L128.57 1.72Q121.37 1.72 115.10-0.99Q108.83-3.70 104.05-8.48Q99.26-13.27 96.56-19.54Q93.85-25.81 93.85-33L93.85-33Q93.85-40.19 96.56-46.46Q99.26-52.73 104.05-57.52Q108.83-62.30 115.10-65.01Q121.37-67.72 128.57-67.72L128.57-67.72Q134.31-67.72 138.73-65.34Q143.15-62.96 146.26-59.07L146.26-59.07ZM128.83-15.91L128.83-15.91Q133.32-15.91 136.88-18.22Q140.45-20.53 142.56-24.39Q144.67-28.25 144.67-33L144.67-33Q144.67-37.75 142.56-41.61Q140.45-45.47 136.88-47.78Q133.32-50.09 128.83-50.09L128.83-50.09Q124.28-50.09 120.65-47.78Q117.02-45.47 114.87-41.61Q112.73-37.75 112.73-33L112.73-33Q112.73-28.25 114.91-24.39Q117.08-20.53 120.75-18.22Q124.41-15.91 128.83-15.91ZM209.48 1.72L209.48 1.72Q200.38 1.72 192.88-2.97Q185.39-7.66 180.94-15.54Q176.48-23.43 176.48-33L176.48-33Q176.48-42.64 180.94-50.56Q185.39-58.48 192.88-63.16Q200.38-67.85 209.48-67.85L209.48-67.85Q218.59-67.85 226.08-63.16Q233.57-58.48 238.03-50.56Q242.48-42.64 242.48-33L242.48-33Q242.48-23.43 238.03-15.54Q233.57-7.66 226.08-2.97Q218.59 1.72 209.48 1.72ZM209.48-16.63L209.48-16.63Q213.64-16.63 216.94-18.91Q220.24-21.19 222.19-24.88Q224.14-28.58 224.14-33L224.14-33Q224.14-37.55 222.12-41.28Q220.11-45.01 216.78-47.26Q213.44-49.50 209.48-49.50L209.48-49.50Q205.39-49.50 202.06-47.22Q198.73-44.95 196.78-41.18Q194.83-37.42 194.83-33L194.83-33Q194.83-28.38 196.84-24.68Q198.86-20.99 202.19-18.81Q205.52-16.63 209.48-16.63ZM273.37 0L255.02 0L255.02-99L273.37-99L273.37 0ZM318.91 1.72L318.91 1.72Q309.80 1.72 302.31-2.97Q294.82-7.66 290.37-15.54Q285.91-23.43 285.91-33L285.91-33Q285.91-42.64 290.37-50.56Q294.82-58.48 302.31-63.16Q309.80-67.85 318.91-67.85L318.91-67.85Q328.02-67.85 335.51-63.16Q343.00-58.48 347.46-50.56Q351.91-42.64 351.91-33L351.91-33Q351.91-23.43 347.46-15.54Q343.00-7.66 335.51-2.97Q328.02 1.72 318.91 1.72ZM318.91-16.63L318.91-16.63Q323.07-16.63 326.37-18.91Q329.67-21.19 331.62-24.88Q333.56-28.58 333.56-33L333.56-33Q333.56-37.55 331.55-41.28Q329.54-45.01 326.20-47.26Q322.87-49.50 318.91-49.50L318.91-49.50Q314.82-49.50 311.49-47.22Q308.15-44.95 306.21-41.18Q304.26-37.42 304.26-33L304.26-33Q304.26-28.38 306.27-24.68Q308.29-20.99 311.62-18.81Q314.95-16.63 318.91-16.63Z" fill="#FFFFFF"></path><path d="M370.39 1.72L370.39 1.72Q366.50 1.72 363.82-0.99Q361.15-3.70 361.15-7.59L361.15-7.59Q361.15-11.35 363.82-14.09Q366.50-16.83 370.39-16.83L370.39-16.83Q374.22-16.83 376.96-14.09Q379.70-11.35 379.70-7.59L379.70-7.59Q379.70-3.70 376.96-0.99Q374.22 1.72 370.39 1.72Z" fill="#FFFFFF"></path></g></g></svg>